<svg width="82" height="23" viewBox="0 0 82 23" fill="none" xmlns="http://www.w3.org/2000/svg">
<g id="Logo">
<g id="ZiRox">
<path d="M0.0625 22V18.556L10.7025 5.45202L10.7865 6.01202L9.8905 4.83602L10.5065 5.31202H0.4265V1.56002H16.1345V5.00402L5.4665 18.108L5.3545 17.492L6.3065 18.752L5.6345 18.22H16.1345V22H0.0625Z" fill="#FCFCFC"/>
<path d="M19.79 22V6.65602H24.27V22H19.79ZM17.746 9.96002V6.65602H24.27V9.96002H17.746ZM21.526 5.14402C20.686 5.14402 20.0607 4.92935 19.65 4.50002C19.258 4.05202 19.062 3.49202 19.062 2.82002C19.062 2.12935 19.258 1.56935 19.65 1.14002C20.0607 0.692017 20.686 0.468018 21.526 0.468018C22.366 0.468018 22.982 0.692017 23.374 1.14002C23.7847 1.56935 23.99 2.12935 23.99 2.82002C23.99 3.49202 23.7847 4.05202 23.374 4.50002C22.982 4.92935 22.366 5.14402 21.526 5.14402Z" fill="#FCFCFC"/>
<path d="M28.6656 22V1.39202H33.2576V22H28.6656ZM41.0696 22L35.0776 13.208H40.1176L46.3896 22H41.0696ZM32.0256 15.448V11.836H37.0656C37.7376 11.836 38.3163 11.7054 38.8016 11.444C39.3056 11.164 39.6883 10.7814 39.9496 10.296C40.2296 9.79202 40.3696 9.21335 40.3696 8.56002C40.3696 7.90668 40.2296 7.33735 39.9496 6.85202C39.6883 6.34802 39.3056 5.96535 38.8016 5.70402C38.3163 5.42402 37.7376 5.28402 37.0656 5.28402H32.0256V1.39202H36.7016C38.4003 1.39202 39.8749 1.65335 41.1256 2.17602C42.3763 2.68002 43.3376 3.43602 44.0096 4.44402C44.6816 5.45202 45.0176 6.72135 45.0176 8.25202V8.70002C45.0176 10.212 44.6723 11.472 43.9816 12.48C43.3096 13.4694 42.3483 14.216 41.0976 14.72C39.8656 15.2054 38.4003 15.448 36.7016 15.448H32.0256Z" fill="#FCFCFC"/>
<path d="M56.0693 22.532C54.7253 22.532 53.5306 22.3267 52.4853 21.916C51.4399 21.4867 50.5533 20.908 49.8253 20.18C49.1159 19.452 48.5746 18.6214 48.2013 17.688C47.8279 16.736 47.6413 15.7374 47.6413 14.692V14.048C47.6413 12.984 47.8279 11.976 48.2013 11.024C48.5933 10.0534 49.1533 9.20402 49.8813 8.47602C50.6279 7.74802 51.5239 7.17869 52.5693 6.76802C53.6146 6.33868 54.7813 6.12402 56.0693 6.12402C57.3946 6.12402 58.5706 6.33868 59.5973 6.76802C60.6426 7.17869 61.5293 7.74802 62.2573 8.47602C62.9853 9.20402 63.5453 10.0534 63.9373 11.024C64.3293 11.976 64.5253 12.984 64.5253 14.048V14.692C64.5253 15.7374 64.3386 16.736 63.9653 17.688C63.5919 18.6214 63.0413 19.452 62.3133 20.18C61.6039 20.908 60.7266 21.4867 59.6813 21.916C58.6359 22.3267 57.4319 22.532 56.0693 22.532ZM56.0693 18.752C56.9466 18.752 57.6746 18.5654 58.2533 18.192C58.8319 17.8187 59.2706 17.296 59.5693 16.624C59.8866 15.952 60.0453 15.2054 60.0453 14.384C60.0453 13.5067 59.8866 12.7414 59.5693 12.088C59.2519 11.416 58.7946 10.884 58.1973 10.492C57.6186 10.1 56.9093 9.90402 56.0693 9.90402C55.2479 9.90402 54.5386 10.1 53.9413 10.492C53.3439 10.884 52.8866 11.416 52.5693 12.088C52.2706 12.7414 52.1213 13.5067 52.1213 14.384C52.1213 15.2054 52.2706 15.952 52.5693 16.624C52.8679 17.296 53.3159 17.8187 53.9133 18.192C54.5106 18.5654 55.2293 18.752 56.0693 18.752Z" fill="#FCFCFC"/>
<path d="M65.5611 22L70.3211 13.768L70.2091 14.468L65.7291 6.65602H70.5731L73.3451 11.864H73.7931L76.3971 6.65602H80.9611L76.6771 14.524L76.7891 13.936L81.8291 22H76.9571L73.6531 16.428H73.2051L70.0971 22H65.5611Z" fill="#FCFCFC"/>
</g>
</g>
</svg>
