<svg width="18" height="18" viewBox="0 0 18 18" fill="none" xmlns="http://www.w3.org/2000/svg">
<g id="4781847_chat_chatting_communication_conversation_email_icon 1" clip-path="url(#clip0_13_4)">
<g id="Layer 2">
<path id="Vector" d="M2.25 15.75C2.17621 15.7519 2.10301 15.7365 2.03625 15.705C1.93353 15.6628 1.84559 15.5911 1.78353 15.4991C1.72147 15.407 1.68805 15.2986 1.6875 15.1875V4.93876C1.69553 4.57751 1.77467 4.22139 1.92037 3.89074C2.06608 3.56008 2.27551 3.26138 2.53669 3.01169C2.79788 2.762 3.1057 2.56621 3.44257 2.43552C3.77944 2.30483 4.13876 2.24179 4.5 2.25001H13.5C13.8612 2.24179 14.2206 2.30483 14.5574 2.43552C14.8943 2.56621 15.2021 2.762 15.4633 3.01169C15.7245 3.26138 15.9339 3.56008 16.0796 3.89074C16.2253 4.22139 16.3045 4.57751 16.3125 4.93876V10.2488C16.3045 10.61 16.2253 10.9661 16.0796 11.2968C15.9339 11.6274 15.7245 11.9261 15.4633 12.1758C15.2021 12.4255 14.8943 12.6213 14.5574 12.752C14.2206 12.8827 13.8612 12.9457 13.5 12.9375H5.29312L2.64938 15.5869C2.59681 15.639 2.53448 15.6803 2.46595 15.7083C2.39741 15.7362 2.32403 15.7504 2.25 15.75ZM4.5 3.37501C4.06917 3.35979 3.64984 3.51572 3.33363 3.80874C3.01743 4.10175 2.83007 4.50802 2.8125 4.93876V13.8319L4.66313 11.9756C4.71569 11.9235 4.77802 11.8823 4.84655 11.8543C4.91509 11.8263 4.98847 11.8121 5.0625 11.8125H13.5C13.9308 11.8277 14.3502 11.6718 14.6664 11.3788C14.9826 11.0858 15.1699 10.6795 15.1875 10.2488V4.93876C15.1699 4.50802 14.9826 4.10175 14.6664 3.80874C14.3502 3.51572 13.9308 3.35979 13.5 3.37501H4.5Z" fill="#1B1B1B"/>
<path id="Vector_2" d="M9 8.4375C9.46599 8.4375 9.84375 8.05974 9.84375 7.59375C9.84375 7.12776 9.46599 6.75 9 6.75C8.53401 6.75 8.15625 7.12776 8.15625 7.59375C8.15625 8.05974 8.53401 8.4375 9 8.4375Z" fill="#1B1B1B"/>
<path id="Vector_3" d="M12.0938 8.4375C12.5597 8.4375 12.9375 8.05974 12.9375 7.59375C12.9375 7.12776 12.5597 6.75 12.0938 6.75C11.6278 6.75 11.25 7.12776 11.25 7.59375C11.25 8.05974 11.6278 8.4375 12.0938 8.4375Z" fill="#1B1B1B"/>
<path id="Vector_4" d="M5.90625 8.4375C6.37224 8.4375 6.75 8.05974 6.75 7.59375C6.75 7.12776 6.37224 6.75 5.90625 6.75C5.44026 6.75 5.0625 7.12776 5.0625 7.59375C5.0625 8.05974 5.44026 8.4375 5.90625 8.4375Z" fill="#1B1B1B"/>
</g>
</g>
<defs>
<clipPath id="clip0_13_4">
<rect width="18" height="18" fill="white"/>
</clipPath>
</defs>
</svg>
